PathFileType	4	(X/Y/Z)	C:/Users/opensim2020/Desktop/walking_exp_matlab/subject02_walking15_straight_03.trc																																																																																																																												
DataRate	CameraRate	NumFrames	NumMarkers	Units	OrigDataRate	OrigDataStartFrame	OrigNumFrames																																																																																																																								
100	100	7	42	mm	100	1329	103																																																																																																																								
Frame#	Time	LFHD			RFHD			LBHD			RBHD			C7			T10			CLAV			STRN			RBAK			LSHO			LUPA			LELB			LFRM			LWRA			LWRB			LFIN			RSHO			RUPA			RELB			RFRM			RWRA			RWRB			RFIN			LASI			RASI			LPSI			RPSI			LTHI			LKNE			LTIB			LANK			LHEE			LTOE			RTHI			RKNE			RTIB			RANK			RHEE			RTOE			*39			*40			*41		
		X1	Y1	Z1	X2	Y2	Z2	X3	Y3	Z3	X4	Y4	Z4	X5	Y5	Z5	X6	Y6	Z6	X7	Y7	Z7	X8	Y8	Z8	X9	Y9	Z9	X10	Y10	Z10	X11	Y11	Z11	X12	Y12	Z12	X13	Y13	Z13	X14	Y14	Z14	X15	Y15	Z15	X16	Y16	Z16	X17	Y17	Z17	X18	Y18	Z18	X19	Y19	Z19	X20	Y20	Z20	X21	Y21	Z21	X22	Y22	Z22	X23	Y23	Z23	X24	Y24	Z24	X25	Y25	Z25	X26	Y26	Z26	X27	Y27	Z27	X28	Y28	Z28	X29	Y29	Z29	X30	Y30	Z30	X31	Y31	Z31	X32	Y32	Z32	X33	Y33	Z33	X34	Y34	Z34	X35	Y35	Z35	X36	Y36	Z36	X37	Y37	Z37	X38	Y38	Z38	X39	Y39	Z39	X40	Y40	Z40	X41	Y41	Z41	X42	Y42	Z42
																																																																																																																															
52	0.51	-48.55364	1729.44019	1391.21863	-48.08746	1716.49023	1535.29382	-186.74954	1669.64587	1388.10046	-198.95122	1656.83813	1530.93115	-250.90547	1528.62866	1458.38672	-306.21075	1253.07947	1472.90186	-115.64948	1459.45593	1453.91321	-64.15637	1287.9585	1466.48462	-316.73297	1354.88513	1522.97778	-178.55121	1498.43164	1281.79456	-184.49503	1295.38208	1199.97986	-182.78812	1154.77197	1188.07031	-164.21614	1024.52856	1177.13269	-101.13869	903.89642	1214.0509	-143.75391	902.32263	1177.66272	-117.96697	841.71973	1174.41553	-191.28528	1498.61975	1645.39832	-250.92392	1325.29285	1738.81592	-252.25218	1181.78564	1778.13538	-225.53845	1064.1239	1804.4491	-180.66296	934.79761	1787.99121	-224.87224	934.43066	1824.99695	-191.49071	868.04938	1823.35474	-100.02469	979.10065	1350.12024	-81.44495	988.9613	1596.71887	-297.72363	1039.13086	1433.99866	-296.31229	1045.66577	1550.34766	-194.08173	659.39014	1335.74927	-248.63849	466.46469	1389.94727	-326.70206	288.01157	1412.69641	-343.4769	69.82848	1472.21021	-376.45688	45.61116	1528.73669	-191.37401	32.41371	1444.18347	-91.68481	697.77283	1703.33215	-43.19275	496.19196	1686.61816	-122.23014	325.56354	1688.22534	-176.89537	140.79778	1653.97083	-210.47137	90.53635	1593.09375	-48.38256	54.7602	1693.1344	-140.35092	1808.99536	1480.00439	2845.96509	1034.49646	-3357.19019	NaN	NaN	NaN
53	0.52	-35.10759	1727.87292	1390.91565	-34.5448	1714.69238	1534.96277	-173.16573	1667.72119	1387.83691	-185.17743	1654.521	1530.62646	-236.96912	1526.66003	1457.86157	-292.87912	1251.48901	1473.0238	-101.86475	1457.31287	1453.3429	-50.64999	1285.67773	1465.75488	-303.02118	1353.16479	1522.48242	-164.52716	1496.26465	1281.25146	-167.72092	1293.51355	1199.61804	-162.67009	1152.50305	1187.57227	-138.26486	1022.40533	1178.70947	-70.38097	905.70294	1217.98096	-112.85102	901.36279	1181.72388	-84.54392	842.02429	1179.57617	-177.29036	1496.35242	1644.68884	-238.4948	1323.65393	1737.96191	-241.86154	1180.22864	1776.91272	-218.86279	1062.04602	1803.69055	-178.85516	931.01697	1786.95764	-221.80441	932.58588	1825.1665	-191.49713	864.52106	1823.00195	-88.50726	976.50171	1348.77283	-67.12186	987.14771	1595.13831	-285.22974	1037.23743	1435.75488	-282.52399	1043.87512	1551.96631	-187.23596	658.16235	1336.33105	-244.96869	466.17294	1390.45508	-324.87277	288.43344	1413.11035	-343.36929	70.19494	1472.45764	-376.37146	45.64064	1528.55249	-191.51534	32.33369	1444.11987	-72.88046	697.80591	1703.06348	-22.64357	495.26111	1684.3855	-91.58257	319.84183	1687.72241	-135.02914	131.81889	1654.6095	-165.56068	78.97974	1594.05176	-0.76332	54.13028	1691.80615	-127.10094	1807.11572	1479.86633	2845.82471	1034.35645	-3357.28711	NaN	NaN	NaN
54	0.53	-21.64832	1725.96729	1390.59656	-20.93723	1712.69153	1534.6084	-159.57056	1665.56775	1387.51392	-171.70068	1652.23352	1530.06531	-222.92802	1524.37561	1457.26794	-279.26315	1249.48669	1473.20154	-87.93542	1454.89661	1452.84143	-37.08071	1283.02344	1465.03394	-289.2702	1350.77332	1521.83704	-150.40712	1493.84253	1280.72998	-150.23555	1291.24744	1199.45508	-142.55072	1149.9458	1187.01013	-112.75207	1020.63049	1180.26196	-39.77319	908.04449	1222.0658	-81.9244	900.88293	1185.87329	-50.92999	843.02277	1184.70142	-162.89717	1493.97693	1644.3374	-225.97299	1321.96277	1737.43262	-231.37491	1178.57922	1775.83752	-211.48547	1060.10059	1803.42175	-175.74117	927.58148	1786.98828	-218.33635	930.92743	1825.56128	-190.93318	861.73712	1823.30859	-76.83503	973.77246	1347.37915	-52.96533	984.89105	1593.69666	-272.55301	1034.89661	1437.72937	-268.25436	1041.43311	1553.69763	-180.63301	657.02911	1336.91003	-241.02492	465.8996	1391.09106	-322.91504	289.06018	1413.60742	-343.19385	70.59901	1472.6394	-376.0593	46.30193	1529.05957	-191.50711	32.25531	1443.96313	-55.39742	696.88647	1701.99463	-2.972	493.97083	1682.24744	-61.02425	314.2482	1687.20142	-93.11267	123.13123	1654.92261	-121.00175	68.77405	1595.20007	46.89542	54.46389	1690.40039	-113.61807	1804.95422	1479.82239	2846.04736	1034.43262	-3357.36548	NaN	NaN	NaN
55	0.54	-8.14684	1723.82874	1390.22424	-7.28462	1710.36145	1534.19922	-145.97202	1663.0542	1387.24451	-157.91528	1649.59045	1529.71423	-208.94292	1521.89355	1456.75012	-265.68259	1247.20227	1473.50952	-73.8941	1452.14758	1452.42114	-23.35831	1280.04395	1464.4751	-275.45523	1348.70642	1521.83057	-136.11478	1491.11169	1280.2428	-133.522	1288.73193	1198.80408	-122.61166	1147.35742	1186.46033	-86.97357	1018.79285	1182.14014	-9.4749	910.80286	1226.11182	-51.72024	900.7973	1189.93799	-17.49805	844.6153	1189.99536	-148.22086	1491.53113	1644.22986	-213.09163	1319.89941	1736.48413	-220.69295	1176.8678	1774.95703	-204.16025	1058.01965	1802.92981	-172.30403	924.38672	1787.29468	-214.43073	929.40936	1826.19604	-190.20685	858.49445	1823.27295	-65.65874	970.6958	1345.97754	-37.97974	982.51581	1593.00134	-259.80362	1032.13062	1439.88489	-254.71944	1038.86084	1555.52979	-174.34666	656.09204	1337.31152	-236.94823	465.53674	1391.76904	-320.83273	289.74741	1414.14111	-343.06113	71.08065	1472.82483	-375.95142	46.95124	1529.34949	-191.55753	32.18892	1443.76392	-37.8928	695.40753	1701.21655	16.03625	492.0719	1679.48096	-30.71389	308.89539	1686.66992	-50.49467	115.88	1655.77869	-75.81457	60.5069	1596.91956	94.19218	55.78459	1688.76001	-100.39304	1802.45496	1479.44067	2846.04077	1034.38428	-3357.47168	NaN	NaN	NaN
56	0.55	5.44466	1721.42627	1389.89856	6.36141	1707.80042	1533.76672	-132.27774	1660.26331	1386.94043	-144.11981	1646.64404	1529.36707	-194.80827	1519.11194	1456.25842	-251.85466	1244.5802	1473.93506	-59.76445	1449.10791	1452.02039	-9.61526	1276.76074	1464.02246	-261.47165	1345.99866	1521.48145	-121.76905	1488.13281	1279.84192	-116.30576	1286.15405	1198.53821	-102.77602	1144.67383	1185.95239	-61.12857	1017.43256	1183.97437	20.44801	914.02502	1230.10315	-20.94506	901.14471	1194.20972	15.69111	846.79877	1195.25647	-133.75241	1488.78076	1643.89661	-200.43375	1317.75854	1735.77991	-210.07335	1174.93762	1773.99072	-196.27211	1056.23962	1803.14685	-168.3815	921.28857	1787.93567	-210.13611	927.99725	1827.0686	-188.77612	855.98712	1823.94775	-53.55471	967.67139	1344.57874	-23.48997	979.45349	1592.25879	-246.9749	1028.96912	1442.12585	-240.77054	1035.5719	1557.31421	-167.77293	654.9519	1337.6377	-232.6057	465.21072	1392.60938	-318.66626	290.53293	1414.89819	-342.86197	71.66333	1473.10815	-375.99826	47.50381	1529.42163	-191.76332	32.23999	1443.46313	-20.71822	693.28046	1700.5592	34.3571	489.72888	1676.87891	-0.75328	304.07327	1685.88501	-7.6249	110.03526	1657.03149	-30.12395	52.64768	1598.08057	141.25754	58.85805	1687.53442	-86.98567	1799.66833	1479.1676	2845.94312	1034.28503	-3357.3584	NaN	NaN	NaN
57	0.56	19.10532	1718.75427	1389.50964	20.09426	1705.01428	1533.38074	-118.66817	1657.03564	1386.40503	-129.98875	1643.53503	1529.37622	-180.56023	1515.63892	1455.49402	-237.90692	1241.68774	1474.4115	-45.51423	1445.7998	1451.57141	3.83821	1273.05786	1463.42981	-247.38123	1342.82788	1521.00916	-107.15452	1484.93481	1279.5249	-99.05702	1283.51843	1198.32239	-83.02427	1141.91223	1185.36218	-36.26118	1016.32239	1185.59705	49.96617	917.90198	1234.51917	9.45898	902.24097	1198.53979	48.40504	849.68512	1200.55835	-119.21681	1485.86084	1643.52136	-187.55952	1315.48413	1735.1416	-198.8963	1173.22314	1773.61243	-188.38731	1054.24744	1803.17126	-163.90012	918.52893	1788.97705	-205.3302	926.74414	1828.22888	-186.81039	853.84094	1825.0708	-41.53938	964.5069	1343.56079	-8.59446	976.31915	1591.99988	-234.00391	1025.46838	1444.49756	-226.35222	1031.80518	1559.02747	-161.07401	653.80048	1337.89929	-228.11543	464.89917	1393.56287	-316.31693	291.37207	1415.90173	-342.6633	72.37546	1473.67322	-375.70499	48.26167	1530.02588	-191.8974	32.2473	1443.2749	-4.21734	689.94446	1699.43689	52.03369	486.94983	1674.36841	28.7992	299.79065	1684.94714	34.81026	105.22709	1657.74634	15.19827	46.67772	1599.52112	187.43344	63.45192	1686.22473	-73.5368	1796.646	1478.90796	2846.11157	1034.28662	-3357.19214	NaN	NaN	NaN
58	0.57	32.70835	1715.87439	1389.02197	33.88417	1702.08167	1532.91675	-104.82607	1653.85803	1386.30774	-116.22326	1640.01123	1528.75232	-166.2588	1512.70618	1455.2699	-223.7605	1238.50269	1474.92407	-31.1276	1442.26379	1451.27502	18.26688	1269.47803	1463.37292	-233.08301	1339.88489	1521.18408	-92.46767	1481.55493	1279.25049	-82.37864	1280.73621	1197.85034	-63.2571	1139.052	1184.84058	-11.29898	1015.1665	1187.66589	78.73113	921.7442	1238.38879	39.33028	903.70441	1202.73767	80.80907	853.11127	1205.90076	-104.90561	1482.68921	1642.93127	-174.90727	1313.04407	1734.32703	-187.80188	1171.33948	1773.22266	-180.12627	1052.51379	1803.75525	-158.74803	915.91974	1790.48206	-200.0867	925.58783	1829.58545	-184.01894	851.77454	1826.55664	-29.54521	961.14972	1342.59363	6.34358	972.85181	1591.9646	-220.83327	1021.77332	1446.77612	-212.35234	1027.90356	1560.77734	-154.05814	652.66223	1338.09924	-223.4406	464.55408	1394.52979	-313.81796	292.30994	1417.12341	-342.36197	73.20026	1474.31982	-375.14432	49.47794	1531.20667	-191.89098	32.12021	1443.11804	12.64117	686.81708	1699.16187	69.15594	483.94632	1671.91113	57.77217	295.93793	1683.76453	76.72873	101.93957	1658.34058	60.43748	42.37475	1600.51123	232.50227	69.5759	1684.9082	-59.99675	1793.50403	1478.78076	2846.15625	1034.271	-3357.1377	NaN	NaN	NaN
